<?xml version="1.0" encoding="UTF-8" standalone="no"?>
<!DOCTYPE svg PUBLIC "-//W3C//DTD SVG 1.1//EN" "http://www.w3.org/Graphics/SVG/1.1/DTD/svg11.dtd">
<svg width="100%" height="100%" viewBox="0 0 128 128" version="1.1" xmlns="http://www.w3.org/2000/svg" xmlns:xlink="http://www.w3.org/1999/xlink" xml:space="preserve" xmlns:serif="http://www.serif.com/" style="fill-rule:evenodd;clip-rule:evenodd;stroke-linecap:round;stroke-linejoin:round;stroke-miterlimit:1.5;">
    <path d="M124.953,12.029L124.953,115.971C124.953,120.932 120.932,124.953 115.971,124.953L12.029,124.953C7.068,124.953 3.047,120.932 3.047,115.971L3.047,12.029C3.047,7.068 7.068,3.047 12.029,3.047L115.971,3.047C120.932,3.047 124.953,7.068 124.953,12.029Z" style="fill:none;stroke:black;stroke-width:4.17px;"/>
    <path d="M124.953,12.029L124.953,115.971C124.953,120.932 120.932,124.953 115.971,124.953L12.029,124.953C7.068,124.953 3.047,120.932 3.047,115.971L3.047,12.029C3.047,7.068 7.068,3.047 12.029,3.047L115.971,3.047C120.932,3.047 124.953,7.068 124.953,12.029Z" style="fill:none;stroke:white;stroke-width:2.29px;"/>
</svg>
