<?xml version="1.0" encoding="UTF-8" standalone="no"?>
<!DOCTYPE svg PUBLIC "-//W3C//DTD SVG 1.1//EN" "http://www.w3.org/Graphics/SVG/1.1/DTD/svg11.dtd">
<svg width="100%" height="100%" viewBox="0 0 1024 512" version="1.1" xmlns="http://www.w3.org/2000/svg" xmlns:xlink="http://www.w3.org/1999/xlink" xml:space="preserve" xmlns:serif="http://www.serif.com/" style="fill-rule:evenodd;clip-rule:evenodd;stroke-linejoin:round;stroke-miterlimit:2;">
    <g transform="matrix(5.32235,0,0,5.32235,-868.106,-1081.3)">
        <g transform="matrix(35.7143,0,0,35.7143,181.822,264.771)">
            <path d="M0.313,-0L0.063,-0L0.063,-0.063L0,-0.063L0,-0.375L0.063,-0.375L0.063,-0.438L0.125,-0.438L0.125,-0.5L0.375,-0.5L0.375,-0.438L0.438,-0.438L0.438,-0.313L0.313,-0.313L0.313,-0.375L0.188,-0.375L0.188,-0.313L0.125,-0.313L0.125,-0.125L0.25,-0.125L0.25,-0.188L0.313,-0.188L0.313,-0.25L0.438,-0.25L0.438,-0.125L0.375,-0.125L0.375,-0.063L0.313,-0.063L0.313,-0Z" style="fill:white;fill-rule:nonzero;"/>
        </g>
        <g transform="matrix(35.7143,0,0,35.7143,197.357,264.771)">
            <path d="M0.438,0.063L0.438,-0L0.375,-0L0.375,-0.125L0.313,-0.125L0.313,-0.188L0.188,-0.188L0.188,-0.063L0.125,-0.063L0.125,-0L0,-0L0,-0.125L0.063,-0.125L0.063,-0.25L0.125,-0.25L0.125,-0.375L0.188,-0.375L0.188,-0.5L0.375,-0.5L0.375,-0.375L0.438,-0.375L0.438,-0.25L0.5,-0.25L0.5,-0.125L0.563,-0.125L0.563,-0L0.5,-0L0.5,0.063L0.438,0.063ZM0.313,-0.25L0.313,-0.375L0.25,-0.375L0.25,-0.25L0.313,-0.25Z" style="fill:white;fill-rule:nonzero;"/>
        </g>
        <g transform="matrix(35.7143,0,0,35.7143,217.357,264.771)">
            <path d="M0.313,-0L0.188,-0L0.188,-0.188L0.125,-0.188L0.125,-0.313L0,-0.313L0,-0.438L0.25,-0.438L0.25,-0.5L0.438,-0.5L0.438,-0.375L0.313,-0.375L0.313,-0.313L0.25,-0.313L0.25,-0.188L0.313,-0.188L0.313,-0Z" style="fill:white;fill-rule:nonzero;"/>
        </g>
        <g transform="matrix(35.7143,0,0,35.7143,232.893,264.771)">
            <path d="M0.313,-0L0.063,-0L0.063,-0.063L0,-0.063L0,-0.375L0.063,-0.375L0.063,-0.438L0.125,-0.438L0.125,-0.5L0.375,-0.5L0.375,-0.438L0.438,-0.438L0.438,-0.313L0.313,-0.313L0.313,-0.375L0.188,-0.375L0.188,-0.313L0.125,-0.313L0.125,-0.125L0.25,-0.125L0.25,-0.188L0.313,-0.188L0.313,-0.25L0.438,-0.25L0.438,-0.125L0.375,-0.125L0.375,-0.063L0.313,-0.063L0.313,-0Z" style="fill:white;fill-rule:nonzero;"/>
        </g>
        <g transform="matrix(35.7143,0,0,35.7143,248.429,264.771)">
            <path d="M0.438,-0L0.313,-0L0.313,-0.188L0.188,-0.188L0.188,-0.125L0.125,-0.125L0.125,-0L0,-0L0,-0.25L0.063,-0.25L0.063,-0.5L0.188,-0.5L0.188,-0.313L0.313,-0.313L0.313,-0.375L0.375,-0.375L0.375,-0.563L0.5,-0.563L0.5,-0.188L0.438,-0.188L0.438,-0Z" style="fill:white;fill-rule:nonzero;"/>
        </g>
        <g transform="matrix(35.7143,0,0,35.7143,278.572,264.771)">
            <path d="M0.188,-0L0.063,-0L0.063,-0.125L0.125,-0.125L0.125,-0.25L0.063,-0.25L0.063,-0.313L0,-0.313L0,-0.438L0.063,-0.438L0.063,-0.5L0.125,-0.5L0.125,-0.375L0.188,-0.375L0.188,-0.313L0.25,-0.313L0.25,-0.375L0.313,-0.375L0.313,-0.438L0.375,-0.438L0.375,-0.5L0.438,-0.5L0.438,-0.438L0.5,-0.438L0.5,-0.375L0.438,-0.375L0.438,-0.313L0.375,-0.313L0.375,-0.25L0.313,-0.25L0.313,-0.188L0.25,-0.188L0.25,-0.063L0.188,-0.063L0.188,-0Z" style="fill:white;fill-rule:nonzero;"/>
        </g>
        <g transform="matrix(35.7143,0,0,35.7143,296.339,264.771)">
            <path d="M0.375,-0L0.125,-0L0.125,-0.063L0.063,-0.063L0.063,-0.125L0,-0.125L0,-0.375L0.063,-0.375L0.063,-0.438L0.125,-0.438L0.125,-0.5L0.313,-0.5L0.313,-0.438L0.375,-0.438L0.375,-0.313L0.438,-0.313L0.438,-0.063L0.375,-0.063L0.375,-0ZM0.188,-0.125L0.313,-0.125L0.313,-0.313L0.25,-0.313L0.25,-0.375L0.188,-0.375L0.188,-0.313L0.125,-0.313L0.125,-0.188L0.188,-0.188L0.188,-0.125Z" style="fill:white;fill-rule:nonzero;"/>
        </g>
        <g transform="matrix(35.7143,0,0,35.7143,311.875,264.771)">
            <path d="M0.313,-0L0.063,-0L0.063,-0.063L0,-0.063L0,-0.375L0.063,-0.375L0.063,-0.5L0.188,-0.5L0.188,-0.313L0.125,-0.313L0.125,-0.188L0.188,-0.188L0.188,-0.125L0.25,-0.125L0.25,-0.188L0.313,-0.188L0.313,-0.438L0.438,-0.438L0.438,-0.125L0.375,-0.125L0.375,-0.063L0.313,-0.063L0.313,-0Z" style="fill:white;fill-rule:nonzero;"/>
        </g>
        <g transform="matrix(50,0,0,50,327.411,264.771)">
            <path d="M0.125,-0L0,-0L0,-0.125L0.125,-0.125L0.125,-0ZM0.125,-0.188L0,-0.188L0,-0.313L0.063,-0.313L0.063,-0.563L0.188,-0.563L0.188,-0.375L0.125,-0.375L0.125,-0.188Z" style="fill:white;fill-rule:nonzero;"/>
        </g>
    </g>
</svg>
